<svg width="24" height="24" viewBox="0 0 24 24" fill="none" xmlns="http://www.w3.org/2000/svg">
<g clip-path="url(#clip0_66_111)">
<path d="M12 24C18.6274 24 24 18.6274 24 12C24 5.37258 18.6274 0 12 0C5.37258 0 0 5.37258 0 12C0 18.6274 5.37258 24 12 24Z" fill="#FF4500"/>
<path d="M19.9832 12.1144C19.9832 11.1416 19.1965 10.369 18.2379 10.369C17.785 10.3684 17.3494 10.5427 17.0219 10.8555C15.8202 9.99702 14.1749 9.43921 12.3438 9.36768L13.1448 5.61946L15.7485 6.17727C15.7773 6.8354 16.3208 7.3648 16.9933 7.3648C17.68 7.3648 18.2379 6.80699 18.2379 6.11999C18.2379 5.43336 17.68 4.87546 16.9933 4.87546C16.507 4.87546 16.0776 5.16158 15.8773 5.57652L12.9733 4.96133C12.8875 4.9469 12.8016 4.96133 12.7443 5.00427C12.6728 5.04721 12.6299 5.11865 12.6158 5.20452L11.7285 9.38183C9.8688 9.43921 8.19489 9.99702 6.97895 10.8698C6.65145 10.557 6.2158 10.3828 5.76292 10.3835C4.79008 10.3835 4.01758 11.1701 4.01758 12.1288C4.01758 12.844 4.44667 13.4448 5.0477 13.7168C5.01852 13.8917 5.00415 14.0688 5.00477 14.2461C5.00477 16.9355 8.13789 19.1245 12.0005 19.1245C15.8632 19.1245 18.9963 16.9499 18.9963 14.2461C18.9962 14.0688 18.9818 13.8918 18.9534 13.7168C19.5541 13.4448 19.9832 12.8296 19.9832 12.1144ZM7.99464 13.3589C7.99464 12.6723 8.55245 12.1144 9.23945 12.1144C9.92608 12.1144 10.484 12.6722 10.484 13.3589C10.484 14.0456 9.92617 14.6037 9.23945 14.6037C8.55255 14.6178 7.99464 14.0456 7.99464 13.3589ZM14.9619 16.6637C14.1035 17.5221 12.4725 17.5794 12.0005 17.5794C11.5141 17.5794 9.88323 17.5077 9.03892 16.6637C8.91039 16.535 8.91039 16.3346 9.03892 16.2059C9.16773 16.0774 9.36798 16.0774 9.4968 16.2059C10.0405 16.7496 11.185 16.9355 12.0005 16.9355C12.816 16.9355 13.9747 16.7496 14.504 16.2059C14.6328 16.0774 14.833 16.0774 14.9619 16.2059C15.0762 16.3346 15.0762 16.535 14.9619 16.6637ZM14.7328 14.6179C14.0461 14.6179 13.4883 14.0601 13.4883 13.3733C13.4883 12.6866 14.0461 12.1288 14.7328 12.1288C15.4197 12.1288 15.9775 12.6866 15.9775 13.3733C15.9775 14.0455 15.4197 14.6179 14.7328 14.6179Z" fill="white"/>
</g>
<defs>
<clipPath id="clip0_66_111">
<rect width="24" height="24" fill="white"/>
</clipPath>
</defs>
</svg>
